<svg width="750" height="500" viewBox="0 0 750 500" fill="none" xmlns="http://www.w3.org/2000/svg">
<path d="M536.104 410.274C534.996 408.092 546.683 405.124 547.06 402.776C547.433 400.427 531.772 401.751 530.984 399.797C529.54 396.192 548.044 397.372 547.491 395.676C546.941 393.976 527.92 391.893 529.598 388.728C531.272 385.567 549.074 392.796 549.357 390.728C549.64 388.664 532.149 385.385 531.957 380.938C531.854 378.559 561.085 390.049 564.145 388.455C567.209 386.865 559.308 376.4 561.675 374.51C564.042 372.616 574.301 394.5 576.151 395.137C577.997 395.775 618.106 406.991 631.749 408.851C632.897 404.578 643.152 381.074 644.141 377.045C652.148 381.238 662.349 376.191 670.545 379.925C666.423 393.384 657.156 437.712 653.456 439.708C642.184 445.787 582.882 416.808 573.079 411.681C563.267 406.547 558.258 408.995 551.867 407.689C545.477 406.384 537.211 412.452 536.104 410.274Z" fill="#F6A390"/>
<path d="M362.549 328.292C365.634 301.324 349.021 276.432 321.665 269.063C320.193 254.021 311.989 239.556 299.539 230.328C274.985 212.126 232.337 204.935 218.743 232.347C198.266 245.503 183.84 271.192 192.708 292.532C173.843 314.237 185.739 349.2 218.243 363.191C220.179 385.382 235.504 406.18 257.909 413.64C263.282 415.431 271.654 417.848 272.778 418.736C271.314 417.715 293.218 459.417 344.361 434.601C396.551 409.276 400.895 351.352 362.549 328.292Z" fill="#345289"/>
<path d="M441.898 438.664C443.478 436.407 431.012 431.227 430.971 428.548C430.934 425.865 448.068 429.85 449.253 427.793C451.431 424.002 430.749 422.355 431.631 420.549C432.517 418.747 453.913 419.464 452.568 415.666C451.218 411.867 430.343 417.085 430.36 414.736C430.38 412.383 450.275 411.526 451.202 406.589C451.698 403.952 417.484 412.099 414.35 409.83C411.212 407.564 421.643 397.152 419.321 394.663C417.004 392.17 402.109 416.8 399.956 417.214C397.811 417.631 351.409 429.303 336.002 429.197C335.416 424.245 328.967 397.179 328.52 392.526C318.979 395.923 309.233 394.788 299.556 397.649C301.964 413.328 313.819 453.38 317.601 456.199C329.107 464.786 389.045 438.475 400.727 434.32C412.418 430.161 417.57 433.694 424.859 433.261C432.148 432.828 440.323 440.918 441.898 438.664Z" fill="#F48C7E"/>
<path d="M301.361 332.85C327.655 341.095 339.994 399.342 339.994 399.342C339.994 399.342 298.74 409.997 288.169 404.407C288.169 404.407 276.175 355.215 271.876 356.934L301.361 332.85Z" fill="#E9AF54"/>
<path d="M215.996 500H312.342C313.274 489.561 317.412 411.431 317.761 406.028C318.692 368.207 313.311 337.479 303.207 333.536C294.897 330.292 274.494 324.782 273.813 324.778C262.865 324.706 229.237 329.856 214.076 332.849C211.332 333.392 208.752 345.702 208.752 345.702L212.054 390.333C226.423 452.625 218.293 491.204 215.996 500Z" fill="#F6CC7E"/>
<path d="M244.344 300.998C244.344 300.998 249.024 323.401 248.089 332.238C247.15 341.072 251.658 369.554 271.876 369.649C292.099 369.74 275.716 333.437 273.812 324.778C271.909 316.119 271.458 289.314 271.458 289.314L244.344 300.998Z" fill="#F6A390"/>
<path d="M271.876 302.762C271.56 295.428 271.458 289.314 271.458 289.314L244.344 300.998C244.344 300.998 245.3 305.578 246.264 311.414C258.131 313.622 266.732 309.558 271.876 302.762Z" fill="#F47457"/>
<path d="M254.672 235.697C254.672 235.697 242.928 237.735 235.344 247.65C227.755 257.566 221.656 287.292 244.803 302.034C267.95 316.772 287.139 297.651 288.193 278.409C289.248 259.171 285.79 233.333 254.672 235.697Z" fill="#F6A390"/>
<path d="M293.85 272.565C291.648 277.145 287.529 279.892 284.646 278.708C281.762 277.521 281.212 272.846 283.411 268.27C285.614 263.693 289.736 260.942 292.616 262.13C295.499 263.318 296.053 267.989 293.85 272.565Z" fill="#F6A390"/>
<path d="M258.191 235.181C258.191 235.181 242.14 265.5 228.989 267.818C215.834 270.137 215.42 285.649 215.42 285.649C215.42 285.649 217.106 249.851 229.65 242.045C242.198 234.24 258.191 235.181 258.191 235.181Z" fill="#345289"/>
<path d="M233.925 274.394C235.447 279.456 233.683 284.332 229.987 285.285C226.287 286.237 222.054 282.905 220.532 277.843C219.011 272.781 220.774 267.909 224.47 266.957C228.17 266.004 232.399 269.332 233.925 274.394Z" fill="#F6A390"/>
<path d="M223.346 332.641C200.896 345.652 194.981 404.62 194.981 404.62C194.981 404.62 237.588 408.65 246.982 401.485C246.982 401.485 243.429 351.033 247.983 352.05L223.346 332.641Z" fill="#F6CC7E"/>
<path d="M274.797 289.315L256.474 291.185C256.474 291.185 257.684 297.697 265.769 297.093C275.626 296.357 274.797 289.315 274.797 289.315Z" fill="white"/>
<path d="M123.972 405.083C123.972 405.083 87.6496 384.729 75.7728 369.015C63.896 353.302 82.2653 362.678 99.5912 356.907C106.153 354.721 101.045 318.453 114.846 329.267C137.492 347.014 158.117 384.205 158.117 384.205L123.972 405.083Z" fill="#D66250"/>
<path d="M59.4809 268.482C59.4809 268.482 59.3849 269.496 59.2032 271.218C58.3307 279.479 54.5659 306.963 51.0103 314.719C46.7139 324.096 72.1096 350.859 93.6493 345.618C100.061 344.059 85.6878 319.796 86.0148 317.076C86.6407 311.873 87.4857 304.774 88.3492 297.496C88.8361 293.39 89.3291 289.227 89.7914 285.315C91.1065 274.197 92.1775 265.105 92.1775 265.105L59.4809 268.482Z" fill="#F6A390"/>
<path d="M146.553 500C145.934 467.424 144.695 411.625 143.337 402.225C141.401 388.812 120.288 334.959 115.288 329.4C110.284 323.845 64.7021 316.446 64.7021 316.446C64.7021 316.446 25.9575 310.875 9.10215 330.895C-0.742135 342.59 0.942963 447.373 2.44018 500H146.553Z" fill="#F47457"/>
<path d="M168.975 303.931C168.975 303.931 181.806 298.069 191.958 309.707C202.11 321.348 197.295 320.643 202.254 326.475C207.213 332.307 218.034 329.879 219.207 339.6C220.38 349.322 215.655 351.341 215.655 351.341C215.655 351.341 221.004 358.444 217.037 366.727C213.071 375.011 201.647 382.972 191.285 382.949C191.285 382.949 176.851 392.329 160.992 390.239C145.134 388.144 150.508 387.59 144.199 388.243C137.894 388.892 119.883 382.657 121.277 370.7C121.277 370.7 109.513 360.356 118.467 349.99C127.426 339.627 128.189 329.958 132.517 316.825C136.844 303.692 161.604 301.628 168.975 303.931Z" fill="#184654"/>
<path d="M59.0732 272.588C59.2549 270.865 59.3513 269.852 59.3513 269.852L92.0472 266.475C92.0472 266.475 90.9766 275.567 89.6615 286.685C89.2017 290.574 88.7115 294.714 88.2274 298.797C83.1041 298.516 77.6054 296.668 71.9045 292.809C65.6893 288.605 61.3769 283.296 58.5305 277.487C58.7553 275.544 58.9378 273.871 59.0732 272.588Z" fill="#F47457"/>
<path d="M156.012 382.722L140.203 390.185L144.378 418.102L162.058 419.073L156.012 382.722Z" fill="#89A5E4"/>
<path d="M167.388 368.727C167.388 368.727 169.566 385.928 167.966 387.689C166.366 389.449 164.172 392.333 167.133 396.242C170.091 400.15 181.027 396.629 186.015 393.855C190.802 391.195 193.636 386.729 193.636 386.729L188.472 359.617L167.388 368.727Z" fill="#F6A390"/>
<path d="M238.12 500C238.892 491.242 238.559 480.333 234.822 469.446C227.332 447.612 224.584 434.358 223.825 426.26C214.575 392.295 204.788 382.911 204.788 382.911C196.596 382.854 181.665 383.75 181.665 383.75C181.665 383.75 165.881 382.775 156.012 382.721C150.417 382.687 130.387 473.271 133.836 500H238.12Z" fill="#9AC1F9"/>
<path d="M191.413 375.056L188.472 359.616L167.388 368.727C167.388 368.727 167.552 368.996 167.896 373.455C168.003 374.95 179.341 380.847 191.413 375.056Z" fill="#F47457"/>
<path d="M39.4385 412.068L75.9754 405.196C75.9754 405.196 84.7721 433.166 86.4567 436.183C86.4567 436.183 155.147 435.454 182.289 432.407L192.212 450.606C186.962 451.323 182.552 451.547 180.005 452.002C175.004 452.894 95.52 468.065 95.52 468.065C95.52 468.065 63.494 472.831 59.8154 468.539C56.1367 464.244 39.4385 412.068 39.4385 412.068Z" fill="#F6A390"/>
<path d="M43.5055 448.163C43.5055 448.163 2.74644 378.741 0.21676 358.497C-2.3125 338.249 17.7407 314.541 36.9748 317.576C56.2084 320.616 88.7099 426.124 88.7099 426.124L43.5055 448.163Z" fill="#D66250"/>
<path d="M153.957 345.804C153.957 345.804 152.209 335.745 145.732 338.401C139.251 341.057 146.208 355.799 151.717 354.721C157.226 353.644 153.957 345.804 153.957 345.804Z" fill="#F6A390"/>
<path d="M171.082 310.583C171.082 310.583 181.567 309.285 187.851 316.294C194.135 323.299 202.577 344.302 195.501 360.125C188.421 375.952 176.648 373.444 171.796 372.415C166.943 371.383 157.316 368.989 150.962 355.533C144.612 342.078 144.222 310.401 171.082 310.583Z" fill="#F6A390"/>
<path d="M65.2204 209.333C64.2737 208.839 48.436 256.328 59.4539 271.768C70.4717 287.208 95.8456 295.621 107.129 286.541C119.607 276.496 128.504 224.204 110.107 207.23C91.7071 190.258 65.2204 209.333 65.2204 209.333Z" fill="#F6A390"/>
<path d="M106.847 180.017C90.1587 180.57 78.0604 188.08 73.5191 191.375C66.0483 191.045 55.4131 193.254 42.2881 207.419C26.1506 224.834 31.6197 247.734 44.4408 260.533C57.2627 273.332 57.5429 284.029 57.5429 284.029C57.5429 284.029 62.5153 270.088 62.8418 264.999C63.0378 261.948 62.9287 258.598 62.0669 255.725C59.7948 248.147 71.7824 245.195 75.9623 239.83C79.1811 235.694 81.1558 225.41 86.2898 218.55L91.8426 213.564C91.8426 213.564 103.644 207.657 113.48 211.356C123.316 215.055 128.255 179.306 106.847 180.017Z" fill="#0E2D34"/>
<path d="M73.7159 248.367C72.7536 254.313 68.9654 258.715 65.2556 258.203C61.5458 257.691 59.318 252.454 60.2804 246.512C61.2427 240.57 65.0304 236.164 68.7406 236.676C72.4505 237.192 74.6782 242.425 73.7159 248.367Z" fill="#F6A390"/>
<path d="M93.0537 265.428L113.467 267.583C113.467 267.583 112.113 274.706 103.106 274C92.1234 273.135 93.0537 265.428 93.0537 265.428Z" fill="white"/>
<path d="M169.122 476.25L160.7 486.841L134.702 469.143L143.123 458.556L169.122 476.25Z" fill="#466EB6"/>
<path d="M139.801 454.503L138.747 454.849L138.808 455.422L138.107 455.653L138.173 456.226L137.471 456.454L137.533 457.027L136.831 457.258L136.893 457.831L136.195 458.059L136.257 458.632L135.556 458.863L135.617 459.436L134.916 459.664L134.977 460.237L134.28 460.468L134.341 461.041L133.64 461.269L133.701 461.842L133 462.074L133.066 462.647L132.364 462.878L132.426 463.447L131.724 463.679L131.786 464.252L131.084 464.483L131.15 465.056L130.449 465.284L130.51 465.857L129.809 466.088L129.87 466.657L129.173 466.889L129.271 467.815L129.238 467.856H129.275L129.28 467.883L129.366 467.853L132.742 467.811L134.702 469.143L143.124 458.556L141.167 457.224L139.838 454.53L139.805 454.572L139.801 454.503Z" fill="#13365B"/>
<path d="M174.229 481.296L170.956 480.856L169.122 479.608L160.701 490.198L162.534 491.443L163.588 494.509V494.592L163.617 494.589L163.629 494.623L163.662 494.581L164.671 494.41L164.684 493.712L165.311 493.61L165.324 492.911L165.947 492.805L165.964 492.107L166.587 492.004L166.599 491.306L167.227 491.2L167.239 490.502L167.863 490.399L167.879 489.701L168.503 489.595L168.515 488.897L169.138 488.794L169.155 488.096L169.778 487.99L169.791 487.292L170.418 487.189L170.431 486.491L171.054 486.385L171.07 485.687L171.694 485.584L171.706 484.886L172.334 484.78L172.346 484.081L172.97 483.975L172.986 483.281L173.61 483.175L173.622 482.476L174.249 482.37L174.266 481.323L174.196 481.338L174.229 481.296Z" fill="#13365B"/>
<path d="M164.404 476.493L159.539 482.606L139.354 468.866L144.218 462.753L164.404 476.493Z" fill="#50BFA5"/>
<path d="M134.702 469.143L139.354 468.866L144.219 462.753L143.123 458.556L134.702 469.143Z" fill="#345289"/>
<path d="M160.7 490.198L159.54 485.964L164.404 479.851L169.122 479.608L160.7 490.198Z" fill="#345289"/>
<path d="M172.137 355.822L188.319 353.367C188.319 353.367 188.959 359.108 181.875 360.379C173.236 361.927 172.137 355.822 172.137 355.822Z" fill="white"/>
<path d="M232.522 430.563C228.986 432.442 222.07 435.99 221.754 435.216C221.479 434.548 226.311 432.127 231.656 428.374C231.074 426.894 230.462 425.35 229.839 423.771C228.477 424.557 227.066 425.168 225.868 425.881C222.308 427.995 219.744 429.581 219.728 429.387C219.707 429.14 218.673 429.076 220.384 427.626C222.111 426.162 226.106 423.98 229.006 421.661C228.379 420.079 227.747 418.485 227.128 416.918C226.803 417.21 226.602 417.393 226.602 417.393C226.602 417.393 217.599 422.599 216.766 421.373C216.417 420.865 221.237 417.218 225.507 412.854C224.765 410.984 224.055 409.208 223.411 407.606C222.689 408.255 221.996 408.866 221.569 409.204C220.167 410.319 215.679 413.351 215.679 413.351C215.679 413.351 199.521 423.194 198.832 421.976C198.147 420.755 197.671 416.99 198.438 416.042C199.206 415.097 201.597 414.091 202.364 413.146C203.131 412.198 203.258 410.308 202.077 409.284C200.896 408.259 195.296 411.424 195.296 411.424C195.296 411.424 190.764 414.031 189.045 417.119C183.077 427.809 183.093 431.061 182.289 432.408L191.802 450.659C195.44 449.98 203.053 448.542 208.324 447.408C215.47 445.863 221.426 441.351 223.358 440.619C223.604 440.528 228.362 438.403 233.99 434.297C233.543 433.159 233.051 431.903 232.522 430.563Z" fill="#F7A391"/>
<path d="M208.028 420.132C208.028 420.132 214.239 437.393 214.534 439.496C214.534 439.496 181.136 459.296 165.991 466.665C165.795 466.733 165.598 466.805 165.401 466.87C165.06 466.976 164.716 467.222 164.351 466.987C162.702 465.932 156.725 462.79 154.092 461.534C153.37 461.185 152.578 460.996 151.762 460.961C149.957 460.886 146.581 460.749 146.581 460.749L149.137 463.105C149.932 463.834 149.957 465.052 149.198 465.815L149.182 465.83C148.411 466.604 147.397 467.093 146.351 467.594C144.989 468.251 143.767 469.328 142.799 470.455C141.852 471.556 141.958 472.903 143.029 474.049C143.685 474.751 144.604 475.347 144.961 476.159C145.584 477.563 154.748 487.212 157.381 486.541C158.698 486.207 164.027 482.792 165.856 481.149C167.185 479.957 168.773 479.08 170.344 478.561C170.692 478.447 171.029 478.303 171.357 478.147V478.151C182.928 473.586 222.11 458.859 222.11 458.859C222.11 458.859 240.397 450.788 240.639 447.373C240.885 443.962 229.445 411.662 229.445 411.662L208.028 420.132Z" fill="#F48C7E"/>
<path d="M240.643 428.363C240.643 428.363 210.933 438.342 203.278 437.857C203.278 437.857 193.302 403.307 192.757 401.144C190.308 391.362 195.366 385.594 199.845 383.268C220.429 372.579 240.643 428.363 240.643 428.363Z" fill="#89A5E4"/>
<path d="M649.97 222.845C662.727 217.787 677.006 212.662 690.083 216.96C698.32 219.665 704.661 225.721 710.679 231.584C717.279 238.012 724.293 245.328 724.457 254.188C724.523 257.793 723.415 261.322 722.197 264.745C719.83 271.415 716.938 278.044 712.266 283.573C704.694 292.54 693.061 297.856 681.214 300.914C670.73 303.624 668.129 302.667 657.255 302.235C649.912 301.943 638.279 291.147 633.513 285.975C625.941 277.756 626.601 242.129 634.587 233.147C636.7 230.772 639.731 228.457 643.091 226.321C645.265 224.936 647.521 223.684 649.843 222.549C649.888 222.655 649.933 222.758 649.97 222.845Z" fill="#13365B"/>
<path d="M732.091 500C729.749 488.62 723.883 458.935 723.871 446.869C723.858 431.793 740.078 340.848 726.722 330.618C713.366 320.388 675.57 322.934 675.57 322.934C675.57 322.934 647.853 334.386 644.219 339.133C640.581 343.884 627.43 388.231 626.831 399.072C626.31 408.581 629.854 482.067 630.736 500H732.091Z" fill="#93DBEF"/>
<path d="M686.353 286.055C686.353 286.055 686.505 286.856 686.784 288.222C688.113 294.771 693.224 316.491 696.678 322.464C700.85 329.681 682.387 352.703 664.621 349.891C659.33 349.056 668.891 327.818 668.42 325.666C667.525 321.549 666.508 316.852 665.261 311.091C664.56 307.839 663.846 304.546 663.177 301.446C661.278 292.646 659.728 285.448 659.728 285.448L686.353 286.055Z" fill="#F6A390"/>
<path d="M686.784 288.222C686.505 286.856 686.353 286.055 686.353 286.055L659.728 285.448C659.728 285.448 661.278 292.646 663.177 301.446C663.842 304.527 664.551 307.806 665.249 311.035C669.359 310.485 673.654 308.656 677.961 305.206C682.657 301.446 685.734 296.927 687.592 292.104C687.264 290.563 686.989 289.235 686.784 288.222Z" fill="#F47457"/>
<path d="M668.433 228.818C668.433 228.818 680.985 227.489 688.848 236.798C696.716 246.106 705.195 274.891 685.653 290.54C666.111 306.189 646.803 288.476 643.94 269.693C641.077 250.91 639.965 228.138 668.433 228.818Z" fill="#F6A390"/>
<path d="M667.029 225.74C667.029 225.74 683.793 253.11 695.788 254.378C707.782 255.641 709.357 270.186 709.357 270.186C709.357 270.186 705.07 236.672 693.195 230.207C681.32 223.744 667.029 225.74 667.029 225.74Z" fill="#13365B"/>
<path d="M691.739 261.333C690.628 266.167 692.732 270.683 696.44 271.411C700.148 272.14 704.058 268.812 705.169 263.974C706.281 259.136 704.177 254.624 700.468 253.892C696.76 253.163 692.851 256.495 691.739 261.333Z" fill="#F6A390"/>
<path d="M696.679 322.464L705.457 326.592L687.175 341.546L690.198 342.878L660.123 358.641L696.679 322.464Z" fill="#C4EFF9"/>
<path d="M668.42 325.666L658.092 330.762L662.321 334.542L656.98 336.041L660.122 358.641L668.42 325.666Z" fill="#C4EFF9"/>
<path d="M671.871 347.014C671.871 347.014 668.039 347.948 663.462 345.383L660.123 358.641L671.871 347.014Z" fill="#13365B"/>
<path d="M693.429 381.955L617.149 392.28C614.856 392.587 613.269 394.561 613.605 396.682L628.491 490.817C628.827 492.942 630.96 494.407 633.253 494.1L709.529 483.775C711.822 483.463 713.41 481.494 713.073 479.373L698.187 385.234C697.851 383.112 695.722 381.644 693.429 381.955Z" fill="#184654"/>
<path d="M636.535 386.535C636.465 386.106 636.789 385.704 637.253 385.643L669.072 381.337C669.535 381.276 669.966 381.572 670.036 382.001L670.52 385.059L637.019 389.594L636.535 386.535Z" fill="#13365B"/>
<path d="M650.088 384.846C649.83 383.203 651.06 381.674 652.836 381.435C654.612 381.196 656.266 382.334 656.524 383.977C656.787 385.62 655.556 387.15 653.78 387.389C652 387.632 650.351 386.493 650.088 384.846ZM648.291 385.093C648.693 387.654 651.269 389.43 654.042 389.055C656.811 388.679 658.731 386.296 658.325 383.735C657.919 381.169 655.343 379.394 652.574 379.769C649.801 380.145 647.885 382.528 648.291 385.093Z" fill="#13365B"/>
<path d="M636.933 385.75C636.65 385.909 636.482 386.212 636.535 386.535L637.019 389.593L670.52 385.059C670.852 387.18 669.269 389.149 666.976 389.461L641.774 392.872C639.481 393.179 637.352 391.715 637.019 389.593L636.535 386.535C636.482 386.212 636.65 385.909 636.933 385.75Z" fill="#345289"/>
<path d="M748.19 414.877L720.552 417.491C720.552 417.491 721.003 439.192 720.531 441.685C720.531 441.685 673.268 453.805 653.513 457.091C653.513 457.091 644.522 452.378 640.883 450.876C637.245 449.377 627.462 447.741 625.3 447.479C623.138 447.218 623.877 449.411 625.731 450.177C627.589 450.94 632.396 453.038 633.758 455.6C633.758 455.6 629.857 455.994 627.794 455.144C625.731 454.294 622.884 452.492 622.839 451.559C622.794 450.625 622.326 448.375 621.649 448.496C621.477 448.527 621.243 449.267 621.013 450.037C620.792 450.773 620.558 451.528 620.365 452.268C620.021 453.596 619.619 455.543 619.467 456.416C619.11 458.408 620.431 463.906 620.616 465.857C620.952 469.42 622.051 471.006 624.086 471.913C627.367 472.971 630.838 473.643 635.965 474.132C645.367 475.036 654.01 472.531 657.779 472.136C661.549 471.746 721.729 466.225 721.729 466.225C721.729 466.225 745.656 463.041 747.243 459.231C748.83 455.421 748.19 414.877 748.19 414.877Z" fill="#F6A390"/>
<path d="M724.182 328.971C724.182 328.971 732.903 332.8 740.574 349.325C747.859 365.031 750 443.404 750 443.404L721.089 438.949L706.4 402.404C695.928 380.532 698.631 355.067 713.886 335.752C717.955 330.599 721.704 327.488 724.182 328.971Z" fill="#80B3DA"/>
<path d="M676.604 278.527L657.321 280.5C657.321 280.5 658.592 287.353 667.1 286.719C677.474 285.941 676.604 278.527 676.604 278.527Z" fill="white"/>
<path d="M646.089 43.179H457.104C447.887 43.179 440.417 50.1135 440.417 58.6676V160.866C440.417 169.42 447.887 176.355 457.104 176.355H589.338C597.838 187.366 613.253 207.084 614.615 207.084C615.886 207.084 613.433 188.46 611.706 176.355H646.089C655.302 176.355 662.776 169.42 662.776 160.866V58.6676C662.776 50.1135 655.302 43.179 646.089 43.179Z" fill="#F6CC7E"/>
<path d="M388.523 163.57C388.523 196.003 416.941 222.295 452.005 222.295C487.064 222.295 515.486 196.003 515.486 163.57C515.486 131.137 487.064 104.844 452.005 104.844C416.941 104.844 388.523 131.137 388.523 163.57Z" fill="#F9DFB1"/>
<path d="M390.878 163.57C390.878 194.749 418.3 220.113 452.006 220.113C485.707 220.113 513.129 194.749 513.129 163.57C513.129 132.391 485.707 107.025 452.006 107.025C418.3 107.025 390.878 132.391 390.878 163.57ZM405.448 206.637C393.011 195.134 386.165 179.839 386.165 163.57C386.165 147.302 393.011 132.007 405.448 120.503C417.885 108.999 434.416 102.664 452.006 102.664C469.591 102.664 486.126 108.999 498.559 120.503C510.996 132.007 517.846 147.302 517.846 163.57C517.846 179.839 510.996 195.134 498.559 206.637C486.126 218.14 469.591 224.477 452.006 224.477C434.416 224.477 417.885 218.14 405.448 206.637Z" fill="#F6CC7E"/>
<path d="M715.466 76.1679C715.466 113.24 682.979 143.292 642.903 143.292C602.827 143.292 570.339 113.24 570.339 76.1679C570.339 39.0965 602.827 9.04359 642.903 9.04359C682.979 9.04359 715.466 39.0965 715.466 76.1679Z" fill="#F9DFB1"/>
<path d="M642.901 11.5365C604.376 11.5365 573.033 40.5305 573.033 76.1686C573.033 111.806 604.376 140.8 642.901 140.8C681.427 140.8 712.77 111.806 712.77 76.1686C712.77 40.5305 681.427 11.5365 642.901 11.5365ZM642.901 145.785C622.802 145.785 603.9 138.544 589.687 125.395C575.473 112.246 567.647 94.7639 567.647 76.1686C567.647 57.5729 575.473 40.091 589.687 26.9417C603.9 13.7928 622.802 6.55159 642.901 6.55159C663.005 6.55159 681.903 13.7928 696.116 26.9417C710.329 40.091 718.16 57.5729 718.16 76.1686C718.16 94.7639 710.329 112.246 696.116 125.395C681.903 138.544 663.005 145.785 642.901 145.785Z" fill="#F6CC7E"/>
<path d="M413.297 177.76H468.603" stroke="#2FB396"/>
<path d="M643.79 86.4491C643.933 86.4491 644.074 86.452 644.217 86.45C644.476 86.4491 644.737 86.448 644.995 86.4654C654.641 87.0587 653.395 104.398 653.395 104.398C653.826 108.748 657.848 107.064 657.848 107.064C667.499 100.678 665.052 79.0786 665.052 79.0786C672.257 69.3052 667.935 58.1992 667.935 58.1981C666.003 53.555 662.26 50.1107 656.759 49.695C652.034 49.3396 648.149 52.8316 643.671 53.0661C639.195 52.8316 635.308 49.3396 630.585 49.695C625.082 50.1107 621.339 53.555 619.408 58.1981C619.408 58.1992 615.085 69.3052 622.29 79.0786C622.29 79.0786 619.844 100.678 629.495 107.064C629.495 107.064 633.517 108.748 633.947 104.398C633.947 104.398 632.701 87.0587 642.348 86.4654C642.827 86.4366 643.309 86.4443 643.79 86.4491Z" fill="white"/>
<path d="M637.95 88.381C637.773 88.4598 637.599 88.5412 637.429 88.634C634.669 90.1413 634.293 92.7908 633.582 95.438C633.181 96.9325 631.796 102.265 629.12 99.8415C627.557 98.425 627.148 96.1044 626.836 94.1911C626.494 92.1013 626.209 89.9748 626.118 87.8631C625.924 83.4787 626.651 78.8586 630.321 75.7851C629.441 75.2257 628.424 74.8612 627.594 74.2383C626.662 73.5377 626.029 72.6149 625.583 71.587C624.537 69.1751 623.829 66.5874 623.936 63.972C624.094 60.1362 625.455 55.9535 629.832 54.685C634.102 53.4491 638.07 55.0207 642.078 56.2597C644.666 57.0602 647.546 57.7724 650.293 57.3302C652.205 57.022 654.289 56.2147 654.465 54.2729C652.65 55.1496 650.243 55.0449 648.307 54.7285C646.73 54.4698 644.941 54.0254 643.643 53.0633C639.178 52.8166 635.299 49.3396 630.585 49.695C625.082 50.1107 621.339 53.555 619.408 58.1981C619.408 58.1992 615.085 69.3052 622.29 79.0786C622.29 79.0786 619.844 100.678 629.495 107.064C629.495 107.064 633.517 108.748 633.947 104.398C633.947 104.398 633.129 93.0178 637.95 88.381Z" fill="#D1F4F4"/>
<path d="M668.932 69.7778C668.819 70.0353 668.691 70.2886 668.549 70.5364C667.458 72.4057 665.812 73.8723 663.878 75.0014C662.517 75.797 661.085 76.4706 659.642 77.1265C659.31 77.2779 658.978 77.427 658.648 77.5798C658.326 77.7272 658.656 77.8299 658.884 78.1463C659.319 78.7504 659.729 79.3725 660.055 80.0344C661.302 82.551 661.764 85.2728 661.909 88.0213C662.067 90.9602 662.342 94.071 661.7 96.9729C661.396 98.3499 660.931 99.6628 660.243 100.915C659.832 101.662 659.336 102.548 658.533 103.005C657.862 103.387 656.832 103.657 656.156 103.11C655.454 102.542 655.396 101.689 655.282 100.88C655.018 98.9898 654.629 97.0625 654.164 95.2038C653.702 93.3596 653.101 91.3355 651.723 89.878C651.042 89.1578 650.256 88.6766 649.4 88.3881C654.211 93.0286 653.395 104.398 653.395 104.398C653.826 108.748 657.847 107.064 657.847 107.064C667.498 100.678 665.052 79.0785 665.052 79.0785C667.337 75.9803 668.46 72.7486 668.932 69.7778Z" fill="#D1F4F4"/>
<path d="M643.79 86.4493V86.7339C643.893 86.7339 643.998 86.7353 644.107 86.7353C644.145 86.7353 644.183 86.735 644.221 86.7347H644.218C644.277 86.7344 644.336 86.7341 644.394 86.7341C644.592 86.7341 644.786 86.7367 644.973 86.7492H644.975C646.811 86.8645 648.211 87.5981 649.323 88.726C650.988 90.4166 651.958 93.0174 652.493 95.6197C653.03 98.2211 653.141 100.818 653.141 102.5C653.141 103.08 653.128 103.551 653.115 103.876C653.108 104.039 653.102 104.165 653.097 104.251C653.092 104.336 653.089 104.379 653.089 104.379L653.089 104.424C653.214 105.694 653.645 106.52 654.238 107.021C654.832 107.522 655.555 107.671 656.184 107.67C657.161 107.667 657.953 107.331 657.975 107.324L658.027 107.296C661.326 105.108 663.21 101.249 664.29 97.094C665.368 92.9355 665.637 88.4634 665.638 85.01C665.638 81.5088 665.36 79.0559 665.359 79.0488L665.053 79.0787L665.307 79.2389C668.626 74.7372 669.529 69.9572 669.529 66.0924C669.528 61.4538 668.232 58.1222 668.225 58.1018L668.222 58.0961C667.242 55.7394 665.798 53.6766 663.887 52.1463C661.978 50.6159 659.599 49.6231 656.784 49.4114C656.547 49.3935 656.313 49.3849 656.08 49.3849C653.786 49.3866 651.71 50.203 649.691 51.0237C647.671 51.848 645.706 52.6764 643.654 52.782L643.671 53.0662L643.689 52.782C641.638 52.6764 639.672 51.848 637.653 51.0237C635.634 50.203 633.557 49.3866 631.265 49.3849C631.032 49.3849 630.797 49.3935 630.561 49.4114C627.745 49.6231 625.366 50.6159 623.456 52.1463C621.546 53.6766 620.102 55.7394 619.121 58.0961L619.119 58.1018C619.112 58.1222 617.815 61.4536 617.815 66.0924C617.814 69.9572 618.718 74.7372 622.037 79.2389L622.291 79.0787L621.985 79.0488C621.984 79.0559 621.706 81.5097 621.706 85.0114C621.706 88.4648 621.976 92.9366 623.054 97.0949C624.134 101.25 626.018 105.109 629.316 107.296L629.368 107.324C629.39 107.331 630.183 107.668 631.16 107.67C631.788 107.671 632.512 107.522 633.106 107.021C633.699 106.52 634.13 105.694 634.254 104.424L634.255 104.379C634.255 104.379 634.252 104.336 634.247 104.251C634.233 103.995 634.203 103.369 634.203 102.5C634.202 100.258 634.402 96.3869 635.541 93.0516C636.109 91.3838 636.912 89.854 638.021 88.726C639.133 87.5981 640.533 86.8645 642.369 86.7492C642.631 86.7336 642.898 86.729 643.167 86.729C643.372 86.729 643.579 86.7316 643.787 86.7339H643.79V86.4493L643.794 86.1647C643.586 86.1625 643.378 86.1599 643.167 86.1599C642.89 86.1599 642.611 86.1645 642.329 86.1815C640.331 86.3022 638.758 87.1263 637.566 88.3433C635.776 90.1702 634.797 92.8584 634.246 95.513C633.699 98.1682 633.588 100.795 633.588 102.5C633.588 103.675 633.641 104.412 633.641 104.417L633.948 104.398L633.642 104.372C633.523 105.554 633.14 106.221 632.691 106.601C632.241 106.98 631.693 107.1 631.16 107.1C630.75 107.101 630.359 107.026 630.075 106.951C629.933 106.914 629.817 106.876 629.738 106.849C629.698 106.835 629.668 106.824 629.648 106.816L629.627 106.807L629.622 106.805L629.495 107.065L629.674 106.833C626.569 104.783 624.712 101.054 623.652 96.962C622.591 92.8726 622.321 88.4369 622.321 85.0114C622.321 83.2742 622.39 81.7968 622.459 80.7545C622.494 80.2332 622.528 79.8208 622.554 79.5391C622.567 79.3983 622.578 79.2901 622.585 79.2173C622.593 79.1447 622.597 79.1083 622.597 79.1083C622.604 79.0417 622.586 78.9737 622.545 78.9182C619.313 74.5343 618.43 69.8779 618.43 66.0924C618.43 63.8222 618.748 61.8679 619.066 60.4835C619.225 59.7915 619.384 59.2417 619.503 58.8664C619.562 58.6786 619.611 58.5343 619.645 58.4378C619.663 58.3894 619.676 58.353 619.685 58.3288L619.695 58.3021L619.697 58.2955L619.698 58.2938L619.699 58.2924L619.699 58.2907L619.7 58.2873L619.703 58.281L619.408 58.1982L619.695 58.3004C620.647 56.014 622.04 54.0332 623.859 52.5765C625.679 51.1202 627.923 50.1825 630.611 49.9788C630.83 49.962 631.048 49.9543 631.265 49.9543C633.393 49.9526 635.39 50.7229 637.405 51.5447C639.418 52.3628 641.445 53.2327 643.654 53.3502H643.689C645.898 53.2327 647.926 52.3628 649.939 51.5447C651.954 50.7229 653.95 49.9526 656.08 49.9543C656.296 49.9543 656.514 49.962 656.734 49.9788C659.422 50.1825 661.664 51.1202 663.484 52.5765C665.303 54.0332 666.697 56.014 667.648 58.3004L667.935 58.1982L667.646 58.2944L667.659 58.3291C667.793 58.6897 668.914 61.8357 668.914 66.0924C668.913 69.8781 668.031 74.5346 664.799 78.9182C664.758 78.9737 664.739 79.0417 664.747 79.1083C664.747 79.1083 664.751 79.1447 664.759 79.2173C664.811 79.7264 665.022 81.9709 665.022 85.01C665.022 88.4355 664.753 92.8715 663.692 96.9611C662.632 101.054 660.775 104.783 657.669 106.833L657.848 107.065L657.721 106.805L657.717 106.807C657.651 106.835 656.953 107.102 656.184 107.1C655.651 107.1 655.103 106.98 654.653 106.601C654.204 106.221 653.82 105.554 653.702 104.372L653.396 104.398L653.703 104.417C653.703 104.412 653.756 103.675 653.756 102.5C653.755 100.226 653.561 96.3154 652.39 92.8803C651.803 91.1627 650.973 89.5604 649.778 88.3433C648.586 87.1263 647.013 86.3022 645.016 86.1815H645.018C644.806 86.1673 644.597 86.165 644.394 86.165C644.334 86.165 644.275 86.1653 644.216 86.1656H644.213C644.177 86.1659 644.142 86.1662 644.107 86.1662C644.004 86.1662 643.899 86.1647 643.79 86.1647V86.4493L643.794 86.1647L643.79 86.4493Z" fill="#5E006A"/>
<path d="M640.827 52.8249C640.832 52.8263 642.426 53.3505 644.537 53.8755C646.65 54.3996 649.271 54.9278 651.367 54.9289C652.088 54.9286 652.749 54.8666 653.314 54.711C653.878 54.5553 654.359 54.3009 654.671 53.9008C654.77 53.7733 654.739 53.5955 654.601 53.5039C654.463 53.412 654.271 53.441 654.172 53.5685C653.968 53.8314 653.622 54.032 653.139 54.1655C652.657 54.2989 652.049 54.3601 651.367 54.3598C649.379 54.3612 646.782 53.8453 644.697 53.3257C643.654 53.0662 642.736 52.8067 642.08 52.6121C641.752 52.5147 641.49 52.4336 641.309 52.377C641.129 52.3204 641.033 52.2885 641.033 52.2885C640.873 52.2359 640.697 52.3133 640.64 52.4615C640.583 52.6095 640.666 52.7723 640.827 52.8249Z" fill="#5E006A"/>
<path d="M680.856 50.4992C672.751 51.1297 672.197 51.6419 671.513 59.1391C670.832 51.6419 670.278 51.1297 662.171 50.4992C670.278 49.868 670.832 49.3552 671.513 41.8589C672.197 49.3552 672.751 49.868 680.856 50.4992Z" fill="white"/>
<path d="M620.129 79.0161C612.023 79.6473 611.47 80.1589 610.787 87.655C610.103 80.1589 609.552 79.6473 601.445 79.0161C609.552 78.3844 610.103 77.8733 610.787 70.3773C611.47 77.8733 612.023 78.3844 620.129 79.0161Z" fill="white"/>
<path d="M645.051 111.859C635.536 111.859 627.822 111.349 627.822 110.721C627.822 110.092 635.536 109.583 645.051 109.583C654.567 109.583 662.281 110.092 662.281 110.721C662.281 111.349 654.567 111.859 645.051 111.859Z" fill="#98E6BF"/>
<rect opacity="0.99" x="409.841" y="140.822" width="86.4145" height="50.3703" rx="2" fill="#F9F9F9"/>
<path d="M468.603 184.476H491.071" stroke="#434FD0"/>
<path d="M413.297 177.76H461.689M413.297 184.476H447.863" stroke="#434FD0"/>
<path d="M440.45 157.612C440.45 162.886 436.045 167.186 430.58 167.186C425.116 167.186 420.711 162.886 420.711 157.612C420.711 152.338 425.116 148.038 430.58 148.038C436.045 148.038 440.45 152.338 440.45 157.612Z" stroke="#747FF1"/>
<path d="M409.841 157.612H416.754M444.407 157.612H485.886H496.256" stroke="#434FD0"/>
</svg>
